<svg width="19" height="19" viewBox="0 0 19 19" fill="none" xmlns="http://www.w3.org/2000/svg">
<path d="M13.9531 13.0622H5.04685C4.09472 13.0562 3.17842 12.6984 2.47412 12.0576C1.76983 11.4169 1.32726 10.5384 1.23149 9.59108C1.13573 8.64375 1.39353 7.69446 1.95535 6.92572C2.51716 6.15698 3.34331 5.62305 4.27498 5.42659C4.5313 4.23109 5.18985 3.15964 6.14073 2.39102C7.0916 1.62241 8.2773 1.20313 9.49998 1.20312C10.7227 1.20313 11.9084 1.62241 12.8592 2.39102C13.8101 3.15964 14.4687 4.23109 14.725 5.42659C15.6566 5.62305 16.4828 6.15698 17.0446 6.92572C17.6064 7.69446 17.8642 8.64375 17.7685 9.59108C17.6727 10.5384 17.2301 11.4169 16.5258 12.0576C15.8215 12.6984 14.9052 13.0562 13.9531 13.0622ZM9.49998 2.37471C8.48682 2.37572 7.50891 2.74678 6.7501 3.41812C5.99129 4.08946 5.50383 5.01485 5.37935 6.02034L5.34373 6.53097H4.8331C4.12448 6.55931 3.45614 6.86799 2.9751 7.38911C2.49407 7.91023 2.23976 8.60109 2.2681 9.30972C2.29645 10.0183 2.60513 10.6867 3.12625 11.1677C3.64737 11.6487 4.33823 11.9031 5.04685 11.8747H13.9531C14.6617 11.9031 15.3526 11.6487 15.8737 11.1677C16.3948 10.6867 16.7035 10.0183 16.7319 9.30972C16.7602 8.60109 16.5059 7.91023 16.0249 7.38911C15.5438 6.86799 14.8755 6.55931 14.1669 6.53097H13.6562L13.5969 6.04409C13.4782 5.03835 12.9965 4.11051 12.2421 3.43485C11.4878 2.75919 10.5127 2.38221 9.49998 2.37471ZM8.31248 17.8122C8.21933 17.8133 8.12742 17.7909 8.04529 17.7469C7.90545 17.6757 7.79947 17.5521 7.75051 17.403C7.70156 17.2539 7.71361 17.0915 7.78404 16.9513L8.97154 14.5763C9.00293 14.5009 9.04952 14.4328 9.10842 14.3763C9.16731 14.3197 9.23723 14.2759 9.31382 14.2476C9.3904 14.2193 9.472 14.2071 9.55352 14.2117C9.63503 14.2164 9.71471 14.2378 9.78758 14.2747C9.86044 14.3115 9.92492 14.363 9.977 14.4259C10.0291 14.4888 10.0676 14.5617 10.0902 14.6402C10.1128 14.7186 10.119 14.8009 10.1084 14.8818C10.0977 14.9628 10.0705 15.0407 10.0284 15.1107L8.84092 17.4857C8.79157 17.5836 8.71608 17.6659 8.62281 17.7236C8.52954 17.7812 8.42212 17.8119 8.31248 17.8122ZM11.875 17.8122C11.7818 17.8133 11.6899 17.7909 11.6078 17.7469C11.4679 17.6757 11.362 17.5521 11.313 17.403C11.2641 17.2539 11.2761 17.0915 11.3465 16.9513L12.534 14.5763C12.5654 14.5009 12.612 14.4328 12.6709 14.3763C12.7298 14.3197 12.7997 14.2759 12.8763 14.2476C12.9529 14.2193 13.0345 14.2071 13.116 14.2117C13.1975 14.2164 13.2772 14.2378 13.3501 14.2747C13.4229 14.3115 13.4874 14.363 13.5395 14.4259C13.5916 14.4888 13.6301 14.5617 13.6527 14.6402C13.6753 14.7186 13.6815 14.8009 13.6709 14.8818C13.6602 14.9628 13.633 15.0407 13.5909 15.1107L12.4034 17.4857C12.3541 17.5836 12.2786 17.6659 12.1853 17.7236C12.092 17.7812 11.9846 17.8119 11.875 17.8122ZM4.74998 17.8122C4.65683 17.8133 4.56492 17.7909 4.48279 17.7469C4.34295 17.6757 4.23697 17.5521 4.18801 17.403C4.13906 17.2539 4.15111 17.0915 4.22154 16.9513L5.40904 14.5763C5.44043 14.5009 5.48702 14.4328 5.54592 14.3763C5.60481 14.3197 5.67473 14.2759 5.75132 14.2476C5.8279 14.2193 5.9095 14.2071 5.99102 14.2117C6.07253 14.2164 6.15221 14.2378 6.22508 14.2747C6.29794 14.3115 6.36242 14.363 6.41449 14.4259C6.46657 14.4888 6.50511 14.5617 6.52771 14.6402C6.55031 14.7186 6.55649 14.8009 6.54586 14.8818C6.53523 14.9628 6.50801 15.0407 6.46591 15.1107L5.27842 17.4857C5.22907 17.5836 5.15358 17.6659 5.06031 17.7236C4.96704 17.7812 4.85962 17.8119 4.74998 17.8122Z" fill="white"/>
</svg>
