<svg width="12" height="14" viewBox="0 0 12 14" fill="none" xmlns="http://www.w3.org/2000/svg">
<path d="M5.89474 14C4.2614 14 2.87074 13.4321 1.72274 12.2964C0.574245 11.1602 0 9.78772 0 8.17895C0 7.36842 0.150561 6.61611 0.451684 5.922C0.752316 5.22839 1.17895 4.61754 1.73158 4.08947L5.89474 0L10.0579 4.08947C10.6105 4.61754 11.0374 5.22839 11.3385 5.922C11.6392 6.61611 11.7895 7.36842 11.7895 8.17895C11.7895 9.78772 11.2155 11.1602 10.0675 12.2964C8.91898 13.4321 7.52807 14 5.89474 14ZM1.49211 7.73684H10.2974C10.2482 7.23333 10.1164 6.76667 9.90168 6.33684C9.68653 5.90702 9.39474 5.51404 9.02632 5.15789L5.89474 2.06316L2.76316 5.15789C2.39474 5.51404 2.10295 5.90702 1.88779 6.33684C1.67312 6.76667 1.54123 7.23333 1.49211 7.73684Z" fill="#70D9FB"/>
</svg>
