<svg width="13" height="13" viewBox="0 0 13 13" fill="none" xmlns="http://www.w3.org/2000/svg">
<path fill-rule="evenodd" clip-rule="evenodd" d="M6.10075 2C6.82141 2.41001 7.42016 3.00418 7.83569 3.72168C8.25122 4.43917 8.46861 5.25421 8.46559 6.08333C8.46559 8.6605 6.41109 10.75 3.87709 10.75C3.20859 10.75 2.57275 10.6042 1.99992 10.3428C2.93909 11.6507 4.4575 12.5 6.17134 12.5C9.02209 12.5 11.3333 10.1492 11.3333 7.25C11.3333 4.35083 9.02209 2 6.17134 2H6.10134H6.10075Z" fill="#70D9FB"/>
<path d="M3.64516 0.145161C3.64516 0.106662 3.62987 0.0697398 3.60264 0.0425168C3.57542 0.0152937 3.5385 0 3.5 0C3.4615 0 3.42458 0.0152937 3.39736 0.0425168C3.37013 0.0697398 3.35484 0.106662 3.35484 0.145161V1.14968L2.84987 0.644516C2.83647 0.630658 2.82045 0.619607 2.80274 0.612008C2.78502 0.604409 2.76597 0.600413 2.7467 0.600255C2.72742 0.600097 2.70831 0.603778 2.69048 0.611086C2.67264 0.618393 2.65644 0.629179 2.64281 0.642815C2.62919 0.656451 2.61842 0.672664 2.61113 0.690507C2.60384 0.70835 2.60017 0.727466 2.60035 0.746741C2.60053 0.766015 2.60454 0.785061 2.61216 0.802768C2.61977 0.820474 2.63084 0.836487 2.64471 0.849871L3.14948 1.35484H2.14516C2.10666 1.35484 2.06974 1.37013 2.04252 1.39736C2.01529 1.42458 2 1.4615 2 1.5C2 1.5385 2.01529 1.57542 2.04252 1.60264C2.06974 1.62987 2.10666 1.64516 2.14516 1.64516H3.14968L2.64452 2.15013C2.63066 2.16353 2.61961 2.17955 2.61201 2.19726C2.60441 2.21498 2.60041 2.23403 2.60025 2.2533C2.6001 2.27258 2.60378 2.29169 2.61109 2.30952C2.61839 2.32736 2.62918 2.34356 2.64282 2.35719C2.65645 2.37081 2.67266 2.38158 2.69051 2.38887C2.70835 2.39616 2.72747 2.39983 2.74674 2.39965C2.76601 2.39947 2.78506 2.39546 2.80277 2.38784C2.82047 2.38023 2.83649 2.36916 2.84987 2.35529L3.35484 1.85052V2.85484C3.35484 2.89334 3.37013 2.93026 3.39736 2.95748C3.42458 2.98471 3.4615 3 3.5 3C3.5385 3 3.57542 2.98471 3.60264 2.95748C3.62987 2.93026 3.64516 2.89334 3.64516 2.85484V1.85032L4.15013 2.35548C4.16353 2.36934 4.17955 2.38039 4.19726 2.38799C4.21498 2.39559 4.23403 2.39959 4.2533 2.39975C4.27258 2.3999 4.29169 2.39622 4.30952 2.38891C4.32736 2.38161 4.34356 2.37082 4.35719 2.35718C4.37081 2.34355 4.38158 2.32734 4.38887 2.30949C4.39616 2.29165 4.39983 2.27253 4.39965 2.25326C4.39947 2.23398 4.39546 2.21494 4.38784 2.19723C4.38023 2.17953 4.36916 2.16351 4.35529 2.15013L3.85052 1.64516H4.85484C4.89334 1.64516 4.93026 1.62987 4.95748 1.60264C4.98471 1.57542 5 1.5385 5 1.5C5 1.4615 4.98471 1.42458 4.95748 1.39736C4.93026 1.37013 4.89334 1.35484 4.85484 1.35484H3.85032L4.35548 0.849871C4.38191 0.822481 4.39653 0.785806 4.39618 0.747745C4.39583 0.709684 4.38055 0.673283 4.35362 0.646381C4.32669 0.61948 4.29028 0.604231 4.25222 0.603918C4.21416 0.603605 4.17749 0.618254 4.15013 0.64471L3.64516 1.14948V0.145161Z" fill="#70D9FB"/>
<path d="M4.09677 8.09677C4.09677 8.07111 4.08658 8.04649 4.06843 8.02834C4.05028 8.0102 4.02567 8 4 8C3.97433 8 3.94972 8.0102 3.93157 8.02834C3.91342 8.04649 3.90323 8.07111 3.90323 8.09677V8.76645L3.56658 8.42968C3.55765 8.42044 3.54697 8.41307 3.53516 8.40801C3.52335 8.40294 3.51065 8.40028 3.4978 8.40017C3.48495 8.40006 3.47221 8.40252 3.46032 8.40739C3.44843 8.41226 3.43762 8.41945 3.42854 8.42854C3.41946 8.43763 3.41228 8.44844 3.40742 8.46034C3.40256 8.47223 3.40012 8.48498 3.40023 8.49783C3.40035 8.51068 3.40303 8.52337 3.4081 8.53518C3.41318 8.54698 3.42056 8.55766 3.42981 8.56658L3.76632 8.90323H3.09677C3.07111 8.90323 3.04649 8.91342 3.02834 8.93157C3.0102 8.94972 3 8.97433 3 9C3 9.02567 3.0102 9.05028 3.02834 9.06843C3.04649 9.08658 3.07111 9.09677 3.09677 9.09677H3.76645L3.42968 9.43342C3.42044 9.44235 3.41307 9.45303 3.40801 9.46484C3.40294 9.47665 3.40028 9.48935 3.40017 9.5022C3.40006 9.51505 3.40252 9.52779 3.40739 9.53968C3.41226 9.55157 3.41945 9.56238 3.42854 9.57146C3.43763 9.58054 3.44844 9.58772 3.46034 9.59258C3.47223 9.59744 3.48498 9.59988 3.49783 9.59977C3.51068 9.59965 3.52337 9.59697 3.53518 9.5919C3.54698 9.58682 3.55766 9.57944 3.56658 9.57019L3.90323 9.23368V9.90323C3.90323 9.92889 3.91342 9.95351 3.93157 9.97166C3.94972 9.9898 3.97433 10 4 10C4.02567 10 4.05028 9.9898 4.06843 9.97166C4.08658 9.95351 4.09677 9.92889 4.09677 9.90323V9.23355L4.43342 9.57032C4.44235 9.57956 4.45303 9.58693 4.46484 9.59199C4.47665 9.59706 4.48935 9.59972 4.5022 9.59983C4.51505 9.59994 4.52779 9.59748 4.53968 9.59261C4.55157 9.58774 4.56238 9.58055 4.57146 9.57146C4.58054 9.56237 4.58772 9.55156 4.59258 9.53966C4.59744 9.52777 4.59988 9.51502 4.59977 9.50217C4.59965 9.48932 4.59697 9.47663 4.5919 9.46482C4.58682 9.45302 4.57944 9.44234 4.57019 9.43342L4.23368 9.09677H4.90323C4.92889 9.09677 4.95351 9.08658 4.97166 9.06843C4.9898 9.05028 5 9.02567 5 9C5 8.97433 4.9898 8.94972 4.97166 8.93157C4.95351 8.91342 4.92889 8.90323 4.90323 8.90323H4.23355L4.57032 8.56658C4.58794 8.54832 4.59769 8.52387 4.59745 8.4985C4.59722 8.47312 4.58703 8.44886 4.56908 8.43092C4.55113 8.41299 4.52685 8.40282 4.50148 8.40261C4.4761 8.4024 4.45166 8.41217 4.43342 8.42981L4.09677 8.76632V8.09677Z" fill="#70D9FB"/>
<path d="M7.54839 0.0483871C7.54839 0.035554 7.54329 0.0232466 7.53421 0.0141723C7.52514 0.00509791 7.51283 0 7.5 0C7.48717 0 7.47486 0.00509791 7.46579 0.0141723C7.45671 0.0232466 7.45161 0.035554 7.45161 0.0483871V0.383226L7.28329 0.214839C7.27882 0.210219 7.27348 0.206536 7.26758 0.204003C7.26167 0.20147 7.25532 0.200138 7.2489 0.200085C7.24247 0.200032 7.2361 0.201259 7.23016 0.203695C7.22421 0.206131 7.21881 0.209726 7.21427 0.214272C7.20973 0.218817 7.20614 0.224221 7.20371 0.230169C7.20128 0.236117 7.20006 0.242489 7.20012 0.248914C7.20018 0.255338 7.20151 0.261687 7.20405 0.267589C7.20659 0.273491 7.21028 0.278829 7.2149 0.28329L7.38316 0.451613H7.04839C7.03555 0.451613 7.02325 0.456711 7.01417 0.465785C7.0051 0.474859 7 0.487167 7 0.5C7 0.512833 7.0051 0.52514 7.01417 0.534215C7.02325 0.543289 7.03555 0.548387 7.04839 0.548387H7.38323L7.21484 0.71671C7.21022 0.721175 7.20654 0.726516 7.204 0.732421C7.20147 0.738326 7.20014 0.744676 7.20008 0.7511C7.20003 0.757525 7.20126 0.763896 7.2037 0.769842C7.20613 0.775787 7.20973 0.781188 7.21427 0.785729C7.21882 0.79027 7.22422 0.79386 7.23017 0.79629C7.23612 0.79872 7.24249 0.799942 7.24891 0.799883C7.25534 0.799824 7.26169 0.798486 7.26759 0.795948C7.27349 0.793409 7.27883 0.78972 7.28329 0.785097L7.45161 0.616839V0.951613C7.45161 0.964446 7.45671 0.976753 7.46579 0.985828C7.47486 0.994902 7.48717 1 7.5 1C7.51283 1 7.52514 0.994902 7.53421 0.985828C7.54329 0.976753 7.54839 0.964446 7.54839 0.951613V0.616774L7.71671 0.785161C7.72118 0.789781 7.72652 0.793464 7.73242 0.795997C7.73833 0.79853 7.74468 0.799862 7.7511 0.799915C7.75753 0.799968 7.7639 0.798741 7.76984 0.796305C7.77579 0.793869 7.78119 0.790274 7.78573 0.785728C7.79027 0.781183 7.79386 0.775779 7.79629 0.769831C7.79872 0.763883 7.79994 0.757511 7.79988 0.751086C7.79982 0.744662 7.79849 0.738313 7.79595 0.732411C7.79341 0.726509 7.78972 0.721171 7.7851 0.71671L7.61684 0.548387H7.95161C7.96445 0.548387 7.97675 0.543289 7.98583 0.534215C7.9949 0.52514 8 0.512833 8 0.5C8 0.487167 7.9949 0.474859 7.98583 0.465785C7.97675 0.456711 7.96445 0.451613 7.95161 0.451613H7.61677L7.78516 0.28329C7.79397 0.27416 7.79884 0.261935 7.79873 0.249248C7.79861 0.236561 7.79352 0.224428 7.78454 0.21546C7.77556 0.206493 7.76343 0.20141 7.75074 0.201306C7.73805 0.201202 7.72583 0.206085 7.71671 0.214903L7.54839 0.383161V0.0483871Z" fill="#70D9FB"/>
<path d="M4.64516 4.14516C4.64516 4.10666 4.62987 4.06974 4.60264 4.04252C4.57542 4.01529 4.5385 4 4.5 4C4.4615 4 4.42458 4.01529 4.39736 4.04252C4.37013 4.06974 4.35484 4.10666 4.35484 4.14516V5.14968L3.84987 4.64452C3.83647 4.63066 3.82045 4.61961 3.80274 4.61201C3.78502 4.60441 3.76597 4.60041 3.7467 4.60025C3.72742 4.6001 3.70831 4.60378 3.69048 4.61109C3.67264 4.61839 3.65644 4.62918 3.64281 4.64282C3.62919 4.65645 3.61842 4.67266 3.61113 4.69051C3.60384 4.70835 3.60017 4.72747 3.60035 4.74674C3.60053 4.76601 3.60454 4.78506 3.61216 4.80277C3.61977 4.82047 3.63084 4.83649 3.64471 4.84987L4.14948 5.35484H3.14516C3.10666 5.35484 3.06974 5.37013 3.04252 5.39736C3.01529 5.42458 3 5.4615 3 5.5C3 5.5385 3.01529 5.57542 3.04252 5.60264C3.06974 5.62987 3.10666 5.64516 3.14516 5.64516H4.14968L3.64452 6.15013C3.63066 6.16353 3.61961 6.17955 3.61201 6.19726C3.60441 6.21498 3.60041 6.23403 3.60025 6.2533C3.6001 6.27258 3.60378 6.29169 3.61109 6.30952C3.61839 6.32736 3.62918 6.34356 3.64282 6.35719C3.65645 6.37081 3.67266 6.38158 3.69051 6.38887C3.70835 6.39616 3.72747 6.39983 3.74674 6.39965C3.76601 6.39947 3.78506 6.39546 3.80277 6.38784C3.82047 6.38023 3.83649 6.36916 3.84987 6.35529L4.35484 5.85052V6.85484C4.35484 6.89334 4.37013 6.93026 4.39736 6.95748C4.42458 6.98471 4.4615 7 4.5 7C4.5385 7 4.57542 6.98471 4.60264 6.95748C4.62987 6.93026 4.64516 6.89334 4.64516 6.85484V5.85032L5.15013 6.35548C5.16353 6.36934 5.17955 6.38039 5.19726 6.38799C5.21498 6.39559 5.23403 6.39959 5.2533 6.39975C5.27258 6.3999 5.29169 6.39622 5.30952 6.38891C5.32736 6.38161 5.34356 6.37082 5.35719 6.35718C5.37081 6.34355 5.38158 6.32734 5.38887 6.30949C5.39616 6.29165 5.39983 6.27253 5.39965 6.25326C5.39947 6.23398 5.39546 6.21494 5.38784 6.19723C5.38023 6.17953 5.36916 6.16351 5.35529 6.15013L4.85052 5.64516H5.85484C5.89334 5.64516 5.93026 5.62987 5.95748 5.60264C5.98471 5.57542 6 5.5385 6 5.5C6 5.4615 5.98471 5.42458 5.95748 5.39736C5.93026 5.37013 5.89334 5.35484 5.85484 5.35484H4.85032L5.35548 4.84987C5.38191 4.82248 5.39653 4.78581 5.39618 4.74774C5.39583 4.70968 5.38055 4.67328 5.35362 4.64638C5.32669 4.61948 5.29028 4.60423 5.25222 4.60392C5.21416 4.60361 5.17749 4.61825 5.15013 4.64471L4.64516 5.14948V4.14516Z" fill="#70D9FB"/>
<path d="M12.0968 10.0968C12.0968 10.0711 12.0866 10.0465 12.0684 10.0283C12.0503 10.0102 12.0257 10 12 10C11.9743 10 11.9497 10.0102 11.9316 10.0283C11.9134 10.0465 11.9032 10.0711 11.9032 10.0968V10.7665L11.5666 10.4297C11.5576 10.4204 11.547 10.4131 11.5352 10.408C11.5233 10.4029 11.5106 10.4003 11.4978 10.4002C11.4849 10.4001 11.4722 10.4025 11.4603 10.4074C11.4484 10.4123 11.4376 10.4195 11.4285 10.4285C11.4195 10.4376 11.4123 10.4484 11.4074 10.4603C11.4026 10.4722 11.4001 10.485 11.4002 10.4978C11.4004 10.5107 11.403 10.5234 11.4081 10.5352C11.4132 10.547 11.4206 10.5577 11.4298 10.5666L11.7663 10.9032H11.0968C11.0711 10.9032 11.0465 10.9134 11.0283 10.9316C11.0102 10.9497 11 10.9743 11 11C11 11.0257 11.0102 11.0503 11.0283 11.0684C11.0465 11.0866 11.0711 11.0968 11.0968 11.0968H11.7665L11.4297 11.4334C11.4204 11.4424 11.4131 11.453 11.408 11.4648C11.4029 11.4767 11.4003 11.4894 11.4002 11.5022C11.4001 11.5151 11.4025 11.5278 11.4074 11.5397C11.4123 11.5516 11.4195 11.5624 11.4285 11.5715C11.4376 11.5805 11.4484 11.5877 11.4603 11.5926C11.4722 11.5974 11.485 11.5999 11.4978 11.5998C11.5107 11.5996 11.5234 11.597 11.5352 11.5919C11.547 11.5868 11.5577 11.5794 11.5666 11.5702L11.9032 11.2337V11.9032C11.9032 11.9289 11.9134 11.9535 11.9316 11.9717C11.9497 11.9898 11.9743 12 12 12C12.0257 12 12.0503 11.9898 12.0684 11.9717C12.0866 11.9535 12.0968 11.9289 12.0968 11.9032V11.2335L12.4334 11.5703C12.4424 11.5796 12.453 11.5869 12.4648 11.592C12.4767 11.5971 12.4894 11.5997 12.5022 11.5998C12.5151 11.5999 12.5278 11.5975 12.5397 11.5926C12.5516 11.5877 12.5624 11.5805 12.5715 11.5715C12.5805 11.5624 12.5877 11.5516 12.5926 11.5397C12.5974 11.5278 12.5999 11.515 12.5998 11.5022C12.5996 11.4893 12.597 11.4766 12.5919 11.4648C12.5868 11.453 12.5794 11.4423 12.5702 11.4334L12.2337 11.0968H12.9032C12.9289 11.0968 12.9535 11.0866 12.9717 11.0684C12.9898 11.0503 13 11.0257 13 11C13 10.9743 12.9898 10.9497 12.9717 10.9316C12.9535 10.9134 12.9289 10.9032 12.9032 10.9032H12.2335L12.5703 10.5666C12.5879 10.5483 12.5977 10.5239 12.5975 10.4985C12.5972 10.4731 12.587 10.4489 12.5691 10.4309C12.5511 10.413 12.5269 10.4028 12.5015 10.4026C12.4761 10.4024 12.4517 10.4122 12.4334 10.4298L12.0968 10.7663V10.0968Z" fill="#70D9FB"/>
<path d="M1.09677 6.09677C1.09677 6.07111 1.08658 6.04649 1.06843 6.02834C1.05028 6.0102 1.02567 6 1 6C0.974334 6 0.949719 6.0102 0.93157 6.02834C0.913422 6.04649 0.903226 6.07111 0.903226 6.09677V6.76645L0.566581 6.42968C0.557649 6.42044 0.546967 6.41307 0.535158 6.40801C0.523349 6.40294 0.510649 6.40028 0.497799 6.40017C0.48495 6.40006 0.472208 6.40252 0.460317 6.40739C0.448426 6.41226 0.437624 6.41945 0.428542 6.42854C0.41946 6.43763 0.41228 6.44844 0.407419 6.46034C0.402559 6.47223 0.400116 6.48498 0.400234 6.49783C0.400352 6.51068 0.403027 6.52337 0.408105 6.53518C0.413182 6.54698 0.420559 6.55766 0.429806 6.56658L0.766323 6.90323H0.0967742C0.0711081 6.90323 0.0464932 6.91342 0.0283445 6.93157C0.0101958 6.94972 0 6.97433 0 7C0 7.02567 0.0101958 7.05028 0.0283445 7.06843C0.0464932 7.08658 0.0711081 7.09677 0.0967742 7.09677H0.766452L0.429677 7.43342C0.420439 7.44235 0.413071 7.45303 0.408005 7.46484C0.402939 7.47665 0.400275 7.48935 0.40017 7.5022C0.400064 7.51505 0.402519 7.52779 0.40739 7.53968C0.412262 7.55157 0.419453 7.56238 0.428543 7.57146C0.437634 7.58054 0.448442 7.58772 0.460338 7.59258C0.472233 7.59744 0.484978 7.59988 0.497827 7.59977C0.510677 7.59965 0.523374 7.59697 0.535178 7.5919C0.546983 7.58682 0.557658 7.57944 0.566581 7.57019L0.903226 7.23368V7.90323C0.903226 7.92889 0.913422 7.95351 0.93157 7.97166C0.949719 7.9898 0.974334 8 1 8C1.02567 8 1.05028 7.9898 1.06843 7.97166C1.08658 7.95351 1.09677 7.92889 1.09677 7.90323V7.23355L1.43342 7.57032C1.44235 7.57956 1.45303 7.58693 1.46484 7.59199C1.47665 7.59706 1.48935 7.59972 1.5022 7.59983C1.51505 7.59994 1.52779 7.59748 1.53968 7.59261C1.55157 7.58774 1.56238 7.58055 1.57146 7.57146C1.58054 7.56237 1.58772 7.55156 1.59258 7.53966C1.59744 7.52777 1.59988 7.51502 1.59977 7.50217C1.59965 7.48932 1.59697 7.47663 1.5919 7.46482C1.58682 7.45302 1.57944 7.44234 1.57019 7.43342L1.23368 7.09677H1.90323C1.92889 7.09677 1.95351 7.08658 1.97166 7.06843C1.9898 7.05028 2 7.02567 2 7C2 6.97433 1.9898 6.94972 1.97166 6.93157C1.95351 6.91342 1.92889 6.90323 1.90323 6.90323H1.23355L1.57032 6.56658C1.58794 6.54832 1.59769 6.52387 1.59745 6.4985C1.59722 6.47312 1.58703 6.44886 1.56908 6.43092C1.55113 6.41299 1.52685 6.40282 1.50148 6.40261C1.4761 6.4024 1.45166 6.41217 1.43342 6.42981L1.09677 6.76632V6.09677Z" fill="#70D9FB"/>
</svg>
