<svg width="19" height="19" viewBox="0 0 19 19" fill="none" xmlns="http://www.w3.org/2000/svg">
<path d="M13.6562 13.6562C13.6562 14.2861 13.406 14.8902 12.9606 15.3356C12.5152 15.781 11.9111 16.0312 11.2812 16.0312C10.2645 16.0312 9.28105 15.3685 8.94336 14.4563C8.89197 14.3095 8.90028 14.1483 8.9665 14.0075C9.03271 13.8667 9.15154 13.7576 9.29743 13.7035C9.44331 13.6494 9.60459 13.6548 9.74657 13.7184C9.88856 13.782 9.9999 13.8988 10.0566 14.0437C10.2229 14.4927 10.7617 14.8438 11.2812 14.8438C11.5962 14.8438 11.8982 14.7186 12.1209 14.4959C12.3436 14.2732 12.4688 13.9712 12.4688 13.6562C12.4688 13.3413 12.3436 13.0393 12.1209 12.8166C11.8982 12.5939 11.5962 12.4688 11.2812 12.4688H2.96875C2.81128 12.4688 2.66026 12.4062 2.54891 12.2948C2.43756 12.1835 2.375 12.0325 2.375 11.875C2.375 11.7175 2.43756 11.5665 2.54891 11.4552C2.66026 11.3438 2.81128 11.2812 2.96875 11.2812H11.2812C11.9111 11.2812 12.5152 11.5315 12.9606 11.9769C13.406 12.4223 13.6562 13.0264 13.6562 13.6562ZM8.90625 7.71875C9.53614 7.71875 10.1402 7.46853 10.5856 7.02313C11.031 6.57773 11.2812 5.97364 11.2812 5.34375C11.2812 4.71386 11.031 4.10977 10.5856 3.66437C10.1402 3.21897 9.53614 2.96875 8.90625 2.96875C7.88945 2.96875 6.90605 3.63152 6.56836 4.54367C6.51697 4.69052 6.52528 4.85168 6.5915 4.99247C6.65771 5.13326 6.77654 5.24243 6.92243 5.29651C7.06831 5.35058 7.22959 5.34523 7.37157 5.28162C7.51356 5.218 7.6249 5.10119 7.68164 4.95633C7.84789 4.5073 8.38672 4.15625 8.90625 4.15625C9.22119 4.15625 9.52324 4.28136 9.74594 4.50406C9.96864 4.72676 10.0938 5.02881 10.0938 5.34375C10.0938 5.65869 9.96864 5.96074 9.74594 6.18344C9.52324 6.40614 9.22119 6.53125 8.90625 6.53125H1.78125C1.62378 6.53125 1.47276 6.59381 1.36141 6.70516C1.25006 6.81651 1.1875 6.96753 1.1875 7.125C1.1875 7.28247 1.25006 7.4335 1.36141 7.54484C1.47276 7.65619 1.62378 7.71875 1.78125 7.71875H8.90625ZM15.4375 5.34375C14.4207 5.34375 13.4373 6.00652 13.0996 6.91867C13.0482 7.06552 13.0565 7.22668 13.1227 7.36747C13.189 7.50826 13.3078 7.61743 13.4537 7.67151C13.5996 7.72558 13.7608 7.72023 13.9028 7.65662C14.0448 7.593 14.1561 7.47619 14.2129 7.33133C14.3791 6.8823 14.918 6.53125 15.4375 6.53125C15.7524 6.53125 16.0545 6.65636 16.2772 6.87906C16.4999 7.10176 16.625 7.40381 16.625 7.71875C16.625 8.03369 16.4999 8.33574 16.2772 8.55844C16.0545 8.78114 15.7524 8.90625 15.4375 8.90625H2.375C2.21753 8.90625 2.06651 8.96881 1.95516 9.08016C1.84381 9.1915 1.78125 9.34253 1.78125 9.5C1.78125 9.65747 1.84381 9.8085 1.95516 9.91985C2.06651 10.0312 2.21753 10.0938 2.375 10.0938H15.4375C16.0674 10.0938 16.6715 9.84353 17.1169 9.39813C17.5623 8.95273 17.8125 8.34864 17.8125 7.71875C17.8125 7.08886 17.5623 6.48477 17.1169 6.03937C16.6715 5.59397 16.0674 5.34375 15.4375 5.34375Z" fill="white"/>
</svg>
