<svg width="16" height="12" viewBox="0 0 16 12" fill="none" xmlns="http://www.w3.org/2000/svg">
<path d="M7.647 0.146894C7.69345 0.100331 7.74862 0.0633877 7.80937 0.0381812C7.87011 0.0129748 7.93523 0 8.001 0C8.06677 0 8.13189 0.0129748 8.19263 0.0381812C8.25338 0.0633877 8.30855 0.100331 8.355 0.146894L9.855 1.64689C9.90149 1.69338 9.93836 1.74857 9.96352 1.80931C9.98868 1.87005 10.0016 1.93515 10.0016 2.00089C10.0016 2.06664 9.98868 2.13174 9.96352 2.19248C9.93836 2.25322 9.90149 2.30841 9.855 2.35489C9.80851 2.40138 9.75332 2.43826 9.69258 2.46342C9.63184 2.48858 9.56674 2.50153 9.501 2.50153C9.43526 2.50153 9.37016 2.48858 9.30942 2.46342C9.24868 2.43826 9.19349 2.40138 9.147 2.35489L8.501 1.70789V3.50089C8.501 3.6335 8.44832 3.76068 8.35455 3.85445C8.26079 3.94822 8.13361 4.00089 8.001 4.00089C7.86839 4.00089 7.74121 3.94822 7.64745 3.85445C7.55368 3.76068 7.501 3.6335 7.501 3.50089V1.70789L6.855 2.35489C6.80851 2.40138 6.75332 2.43826 6.69258 2.46342C6.63184 2.48858 6.56674 2.50153 6.501 2.50153C6.43526 2.50153 6.37016 2.48858 6.30942 2.46342C6.24868 2.43826 6.19349 2.40138 6.147 2.35489C6.10051 2.30841 6.06364 2.25322 6.03848 2.19248C6.01332 2.13174 6.00037 2.06664 6.00037 2.00089C6.00037 1.93515 6.01332 1.87005 6.03848 1.80931C6.06364 1.74857 6.10051 1.69338 6.147 1.64689L7.647 0.146894ZM2.344 3.34389C2.43776 3.25016 2.56492 3.1975 2.6975 3.1975C2.83008 3.1975 2.95724 3.25016 3.051 3.34389L4.465 4.75789C4.55608 4.85219 4.60648 4.9785 4.60534 5.10959C4.6042 5.24069 4.55161 5.3661 4.45891 5.4588C4.36621 5.55151 4.2408 5.60409 4.1097 5.60523C3.9786 5.60637 3.8523 5.55597 3.758 5.46489L2.344 4.05089C2.25026 3.95713 2.19761 3.82998 2.19761 3.69739C2.19761 3.56481 2.25026 3.43766 2.344 3.34389ZM13.658 3.34389C13.7517 3.43766 13.8044 3.56481 13.8044 3.69739C13.8044 3.82998 13.7517 3.95713 13.658 4.05089L12.244 5.46489C12.1979 5.51265 12.1427 5.55074 12.0817 5.57694C12.0207 5.60315 11.9551 5.61694 11.8887 5.61752C11.8223 5.6181 11.7565 5.60544 11.695 5.5803C11.6336 5.55516 11.5777 5.51804 11.5308 5.47109C11.4839 5.42414 11.4467 5.36832 11.4216 5.30687C11.3964 5.24542 11.3838 5.17958 11.3844 5.11319C11.385 5.0468 11.3987 4.98119 11.4249 4.92019C11.4512 4.85919 11.4892 4.80402 11.537 4.75789L12.951 3.34389C13.0448 3.25016 13.1719 3.1975 13.3045 3.1975C13.4371 3.1975 13.5642 3.25016 13.658 3.34389ZM8.001 6.00089C8.52769 6.00073 9.04514 6.13923 9.50132 6.40247C9.95751 6.66571 10.3364 7.04441 10.5998 7.50049C10.8632 7.95658 11.0019 8.47397 11.0019 9.00066C11.002 9.52735 10.8633 10.0448 10.6 10.5009H5.401C5.13761 10.0447 4.99899 9.52719 4.99908 9.00041C4.99916 8.47364 5.13795 7.95617 5.40148 7.50006C5.66501 7.04395 6.044 6.66526 6.50033 6.4021C6.95665 6.13893 7.47423 6.00056 8.001 6.00089ZM11.711 10.5009C11.9562 9.89374 12.0486 9.23568 11.98 8.58448C11.9115 7.93329 11.6842 7.30887 11.318 6.76606C10.9518 6.22324 10.4579 5.77863 9.87973 5.47125C9.30157 5.16387 8.65679 5.00312 8.002 5.00312C7.34721 5.00312 6.70243 5.16387 6.12427 5.47125C5.54611 5.77863 5.05225 6.22324 4.68605 6.76606C4.31984 7.30887 4.0925 7.93329 4.02397 8.58448C3.95544 9.23568 4.04782 9.89374 4.293 10.5009H0.5C0.367392 10.5009 0.240215 10.5536 0.146447 10.6473C0.0526784 10.7411 0 10.8683 0 11.0009C0 11.1335 0.0526784 11.2607 0.146447 11.3544C0.240215 11.4482 0.367392 11.5009 0.5 11.5009H15.5C15.6326 11.5009 15.7598 11.4482 15.8536 11.3544C15.9473 11.2607 16 11.1335 16 11.0009C16 10.8683 15.9473 10.7411 15.8536 10.6473C15.7598 10.5536 15.6326 10.5009 15.5 10.5009H11.71H11.711ZM0.001 9.00089C0.001 8.86829 0.0536784 8.74111 0.147447 8.64734C0.241215 8.55357 0.368392 8.50089 0.501 8.50089H2.501C2.63361 8.50089 2.76079 8.55357 2.85455 8.64734C2.94832 8.74111 3.001 8.86829 3.001 9.00089C3.001 9.1335 2.94832 9.26068 2.85455 9.35445C2.76079 9.44822 2.63361 9.50089 2.501 9.50089H0.501C0.368392 9.50089 0.241215 9.44822 0.147447 9.35445C0.0536784 9.26068 0.001 9.1335 0.001 9.00089ZM13.001 9.00089C13.001 8.86829 13.0537 8.74111 13.1474 8.64734C13.2412 8.55357 13.3684 8.50089 13.501 8.50089H15.501C15.6336 8.50089 15.7608 8.55357 15.8546 8.64734C15.9483 8.74111 16.001 8.86829 16.001 9.00089C16.001 9.1335 15.9483 9.26068 15.8546 9.35445C15.7608 9.44822 15.6336 9.50089 15.501 9.50089H13.501C13.3684 9.50089 13.2412 9.44822 13.1474 9.35445C13.0537 9.26068 13.001 9.1335 13.001 9.00089Z" fill="url(#paint0_linear_3823_253)"/>
<defs>
<linearGradient id="paint0_linear_3823_253" x1="8.0005" y1="0" x2="8.0005" y2="11.5009" gradientUnits="userSpaceOnUse">
<stop offset="0.432292" stop-color="#FFD233"/>
<stop offset="1" stop-color="#CD7340"/>
</linearGradient>
</defs>
</svg>
