<svg width="19" height="19" viewBox="0 0 19 19" fill="none" xmlns="http://www.w3.org/2000/svg">
<path d="M2.375 9.5H3.16667M15.8333 9.5H16.625M4.43333 4.43333L4.9875 4.9875M14.5667 4.43333L14.0125 4.9875M6.33333 9.5C6.33333 8.66015 6.66696 7.85469 7.26083 7.26083C7.85469 6.66696 8.66015 6.33333 9.5 6.33333C10.3399 6.33333 11.1453 6.66696 11.7392 7.26083C12.333 7.85469 12.6667 8.66015 12.6667 9.5M9.5 3.16667V2.375M10.2917 12.6667L11.875 16.625H12.6667L14.25 12.6667M4.75 12.6667V15.0417C4.75 15.4616 4.91681 15.8643 5.21375 16.1613C5.51068 16.4582 5.91341 16.625 6.33333 16.625C6.75326 16.625 7.15599 16.4582 7.45292 16.1613C7.74985 15.8643 7.91667 15.4616 7.91667 15.0417V12.6667" stroke="white" stroke-width="1.58333" stroke-linecap="round" stroke-linejoin="round"/>
</svg>
