<svg width="96" height="20" viewBox="0 0 96 20" fill="none" xmlns="http://www.w3.org/2000/svg">
<path d="M72.2275 9.34049L71.6422 9.39653C67.2836 9.70163 67.1591 7.63443 67.1591 7.69669C67.0657 11.856 69.2699 12.46 73.5786 11.7813C74.7056 11.6007 75.5836 11.5073 76.2623 11.4637H76.5424C77.9745 11.389 78.4104 11.5634 78.4851 11.6132C78.5598 11.663 78.4851 11.6132 78.4851 11.5509C78.5412 10.7352 77.0032 8.82992 72.2275 9.34049Z" fill="#8CBA24"/>
<path d="M16.4131 0.473633H0V2.47857H7.14181V19.3462H9.3024V2.47857H16.4131V0.473633Z" fill="white"/>
<path d="M23.038 0.517578L15.3545 19.3465H17.6583L24.1463 3.10781L30.6094 19.3465H32.9257L25.2484 0.517578H23.038Z" fill="white"/>
<path d="M51.8668 10.6543C52.4284 10.1204 52.869 9.47235 53.159 8.75381C53.449 8.03526 53.5816 7.26292 53.548 6.4888C53.5883 5.71015 53.4557 4.93223 53.1596 4.21093C52.8636 3.48963 52.4114 2.84284 51.8357 2.31704C50.6153 1.16306 48.6809 0.563239 46.0326 0.517578H36.1138V19.3465H38.2744V2.49138H45.989C48.1185 2.53289 49.5485 2.93346 50.2791 3.6931C50.639 4.06498 50.9213 4.50481 51.1095 4.98695C51.2976 5.46909 51.3879 5.98387 51.3749 6.50125C51.3869 7.01371 51.2973 7.52346 51.1114 8.00114C50.9254 8.47882 50.6468 8.91498 50.2915 9.2845C49.5693 10.0379 48.1434 10.4426 46.0139 10.4862H41.8422V12.4662H46.0077C46.574 12.4637 47.1396 12.4263 47.7013 12.3542L51.1632 19.359H53.5729L49.8432 11.8311C50.5822 11.562 51.2674 11.1635 51.8668 10.6543Z" fill="white"/>
<path d="M78.4853 11.6068C78.2677 12.7686 77.8211 13.8756 77.1715 14.8632C76.1769 16.3913 74.8013 17.6339 73.1803 18.4684C71.4954 19.3438 69.6246 19.8008 67.7259 19.8008C65.8271 19.8008 63.9563 19.3438 62.2714 18.4684C60.6575 17.6332 59.2902 16.3903 58.3052 14.8632C57.3498 13.3856 56.8416 11.6634 56.8416 9.9038C56.8416 8.1442 57.3498 6.42205 58.3052 4.94439C59.2883 3.41638 60.6533 2.17153 62.2652 1.33302C63.9435 0.440093 65.8187 -0.0180188 67.7196 0.000542377C69.8797 -0.0157654 72.0015 0.570748 73.8465 1.69415L72.6323 3.31305C71.1466 2.42712 69.4495 1.9582 67.7196 1.95567C66.2004 1.94513 64.7024 2.3132 63.3611 3.02663C62.0666 3.70405 60.9703 4.70601 60.1793 5.9344C59.419 7.1187 59.0148 8.49645 59.0148 9.9038C59.0148 11.3112 59.419 12.6889 60.1793 13.8732C60.969 15.0995 62.066 16.0977 63.3611 16.7685C64.6606 17.4458 66.0998 17.8119 67.565 17.8378C69.0303 17.8638 70.4815 17.5489 71.8042 16.918C73.0231 16.3437 74.0897 15.4905 74.9175 14.4274C75.5882 13.5687 76.0526 12.5675 76.2749 11.5009H76.555C77.9747 11.3826 78.4043 11.5569 78.4853 11.6068Z" fill="white"/>
<path d="M95.8758 2.47893V0.517578H82.8811V19.3216H95.8758V17.3416H85.0417V10.8785H93.4599V8.91714H85.0417V2.47893H95.8758Z" fill="white"/>
</svg>
