<svg width="8" height="16" viewBox="0 0 8 16" fill="none" xmlns="http://www.w3.org/2000/svg">
<path d="M1.125 2.8125C1.125 2.06658 1.42132 1.35121 1.94876 0.823762C2.47621 0.296316 3.19158 0 3.9375 0C4.68342 0 5.39879 0.296316 5.92624 0.823762C6.45369 1.35121 6.75 2.06658 6.75 2.8125V8.94375C7.29263 9.49757 7.65967 10.1993 7.80511 10.9608C7.95055 11.7224 7.8679 12.51 7.56754 13.2248C7.26718 13.9396 6.76247 14.5498 6.1167 14.9789C5.47093 15.408 4.71284 15.6369 3.9375 15.6369C3.16216 15.6369 2.40407 15.408 1.7583 14.9789C1.11253 14.5498 0.607824 13.9396 0.307462 13.2248C0.00710021 12.51 -0.0755434 11.7224 0.0698938 10.9608C0.215331 10.1993 0.582375 9.49757 1.125 8.94375V2.8125ZM3.9375 1.125C3.48995 1.125 3.06073 1.30279 2.74426 1.61926C2.42779 1.93573 2.25 2.36495 2.25 2.8125V9.43538L2.06325 9.60413C1.63865 9.98384 1.33934 10.4835 1.20496 11.0371C1.07057 11.5906 1.10743 12.1719 1.31066 12.7041C1.51389 13.2362 1.87391 13.6941 2.34308 14.0171C2.81224 14.3401 3.36844 14.5131 3.93807 14.5131C4.50769 14.5131 5.06388 14.3401 5.53305 14.0171C6.00222 13.6941 6.36224 13.2362 6.56547 12.7041C6.7687 12.1719 6.80556 11.5906 6.67117 11.0371C6.53678 10.4835 6.23748 9.98384 5.81288 9.60413L5.625 9.43425V2.8125C5.625 2.36495 5.44721 1.93573 5.13074 1.61926C4.81428 1.30279 4.38506 1.125 3.9375 1.125ZM4.5 5.625C4.5 5.47582 4.44074 5.33274 4.33525 5.22725C4.22976 5.12176 4.08669 5.0625 3.9375 5.0625C3.78832 5.0625 3.64524 5.12176 3.53975 5.22725C3.43427 5.33274 3.375 5.47582 3.375 5.625V10.2206C2.99969 10.3533 2.68338 10.6144 2.48196 10.9578C2.28054 11.3011 2.20699 11.7046 2.2743 12.097C2.34162 12.4893 2.54547 12.8452 2.84982 13.1018C3.15417 13.3584 3.53943 13.4991 3.9375 13.4991C4.33558 13.4991 4.72083 13.3584 5.02519 13.1018C5.32954 12.8452 5.53338 12.4893 5.6007 12.097C5.66801 11.7046 5.59446 11.3011 5.39304 10.9578C5.19163 10.6144 4.87531 10.3533 4.5 10.2206V5.625Z" fill="#FF8080"/>
</svg>
